<svg width="27" height="24" viewBox="0 0 27 24" fill="none" xmlns="http://www.w3.org/2000/svg">
<path d="M7.73951 23.7173C8.56646 23.7173 9.23684 23.0469 9.23684 22.22C9.23684 21.393 8.56646 20.7227 7.73951 20.7227C6.91256 20.7227 6.24219 21.393 6.24219 22.22C6.24219 23.0469 6.91256 23.7173 7.73951 23.7173Z" fill="black"/>
<path d="M17.4661 23.7173C18.293 23.7173 18.9634 23.0469 18.9634 22.22C18.9634 21.393 18.293 20.7227 17.4661 20.7227C16.6391 20.7227 15.9688 21.393 15.9688 22.22C15.9688 23.0469 16.6391 23.7173 17.4661 23.7173Z" fill="black"/>
<path d="M4.20856 8.74332H21L18.5295 17.39C18.4401 17.7028 18.2513 17.9781 17.9915 18.174C17.7317 18.3699 17.4152 18.4759 17.0898 18.4759H8.11874C7.79336 18.4759 7.47683 18.3699 7.21706 18.174C6.95729 17.9781 6.76841 17.7028 6.67902 17.39L3.29418 5.54299C3.24948 5.38656 3.15505 5.24894 3.02516 5.15097C2.89528 5.053 2.73701 5 2.57432 5H1" stroke="black" stroke-width="1.5" stroke-linecap="round" stroke-linejoin="round"/>
<circle cx="18.665" cy="7.665" r="7.665" fill="black"/>
<path d="M18.59 11.12C17.9967 11.12 17.4767 10.96 17.03 10.64C16.5833 10.3133 16.2333 9.86333 15.98 9.29C15.7333 8.71 15.61 8.03667 15.61 7.27C15.61 6.49667 15.7333 5.82333 15.98 5.25C16.2333 4.67667 16.58 4.23 17.02 3.91C17.4667 3.59 17.9867 3.43 18.58 3.43C19.1733 3.43 19.69 3.59 20.13 3.91C20.5767 4.23 20.9233 4.68 21.17 5.26C21.4233 5.83333 21.55 6.50333 21.55 7.27C21.55 8.03667 21.4267 8.71 21.18 9.29C20.9333 9.86333 20.5867 10.3133 20.14 10.64C19.7 10.96 19.1833 11.12 18.59 11.12ZM18.59 10.04C18.9567 10.04 19.2733 9.92667 19.54 9.7C19.8067 9.47333 20.0133 9.15333 20.16 8.74C20.3067 8.32667 20.38 7.83667 20.38 7.27C20.38 6.70333 20.3067 6.21333 20.16 5.8C20.0133 5.38667 19.8067 5.06667 19.54 4.84C19.2733 4.61333 18.9533 4.5 18.58 4.5C18.2133 4.5 17.8967 4.61333 17.63 4.84C17.3633 5.06667 17.1567 5.38667 17.01 5.8C16.8633 6.21333 16.79 6.70333 16.79 7.27C16.79 7.83 16.8633 8.32 17.01 8.74C17.1567 9.15333 17.3633 9.47333 17.63 9.7C17.9033 9.92667 18.2233 10.04 18.59 10.04Z" fill="white"/>
</svg>
