<svg width="20" height="20" viewBox="0 0 20 20" fill="none" xmlns="http://www.w3.org/2000/svg">
<path d="M9.18135 1C7.56324 1 5.98145 1.47983 4.63604 2.37881C3.29062 3.27778 2.242 4.55554 1.62277 6.05048C1.00354 7.54543 0.841527 9.19042 1.15721 10.7775C1.47289 12.3645 2.25208 13.8223 3.39627 14.9664C4.54045 16.1106 5.99822 16.8898 7.58525 17.2055C9.17228 17.5212 10.8173 17.3592 12.3122 16.7399C13.8072 16.1207 15.0849 15.0721 15.9839 13.7267C16.8829 12.3812 17.3627 10.7995 17.3627 9.18135C17.3626 7.01156 16.5006 4.93068 14.9663 3.39641C13.432 1.86214 11.3511 1.00014 9.18135 1Z" stroke="black" stroke-width="1.5" stroke-miterlimit="10"/>
<path d="M15.2812 15.2852L18.4961 18.5" stroke="black" stroke-width="1.5" stroke-miterlimit="10" stroke-linecap="round"/>
</svg>
